<svg xmlns="http://www.w3.org/2000/svg" viewBox="0 0 80 80">
    <g fill="none" fill-rule="nonzero" transform="translate(8 10)">
        <circle cx="41" cy="38" r="21" fill="#E8E8E8"/>
        <path fill="#212121" d="M44.466 4.502A27.394 27.394 0 0 0 32.99 2C17.802 2 5.49 14.312 5.49 29.5S17.802 57 32.99 57s27.5-12.312 27.5-27.5c0-3.71-.735-7.313-2.138-10.649-1.314 2.128-2.981 4.52-5.002 7.182l-.796 1.05-.797-1.05c-5.807-7.649-8.716-13.089-8.716-16.52 0-1.8.502-3.525 1.425-5.011zm13.127 11.71l.923-1.627.84 1.67A29.379 29.379 0 0 1 62.49 29.5c0 16.292-13.208 29.5-29.5 29.5-16.293 0-29.5-13.208-29.5-29.5S16.697 0 32.99 0c4.734 0 9.31 1.117 13.433 3.23l1.104.565-.786.958a7.477 7.477 0 0 0-1.7 4.76c0 2.698 2.5 7.506 7.513 14.25 2.13-2.865 3.81-5.384 5.04-7.551z"/>
        <path fill="#212121" d="M20.143 43.105a1 1 0 1 1 .64-1.895l6.856 2.316a1 1 0 0 1 .661 1.14l-.88 4.498.587 3.154a1 1 0 0 1-.476 1.045l-5.152 3.035a1 1 0 1 1-1.015-1.723l4.548-2.68-.494-2.653a1 1 0 0 1 .002-.375l.75-3.826-6.027-2.036zM11.672 20.028L6.48 24.351a1 1 0 1 1-1.28-1.537l5.385-4.485a1 1 0 0 1 .442-.211l7.462-1.506.212-.02 1.448.021 3.174-5.226-1.212-2.6a1 1 0 0 1-.01-.822l2.446-5.604a1 1 0 1 1 1.833.8l-2.266 5.19 1.248 2.675a1 1 0 0 1-.052.942l-3.749 6.172a1 1 0 0 1-.869.48l-1.912-.026-7.11 1.434zM47.621 18.138a1 1 0 1 1 .739 1.859l-2.025.804a1 1 0 0 1-.711.01l-3.055-1.11-4.228.358-3.264.439c-1.48 2.1-2.326 3.124-2.907 3.395a.62.62 0 0 0 .187-.112 3.82 3.82 0 0 0-.176.326c-.151.308-.33.734-.526 1.249a51.045 51.045 0 0 0-.823 2.353v3.117l2.557 3.186c1.8.133 2.942.128 3.094.057l3.934-1.834a1 1 0 0 1 1.243.334l2.878 4.127a1 1 0 0 1 .172.45l.34 2.773a1 1 0 0 1-.25.793l-2.498 2.76 2.027 1.878a1 1 0 0 1 .316.64l.288 3.051 3.858-.95 5.57-3.675 3-3.866 1.658-2.788a1 1 0 0 1 1.719 1.022l-1.69 2.841-.07.102-3.14 4.045a1 1 0 0 1-.238.222l-5.852 3.86a1 1 0 0 1-.311.137l-5.15 1.27a1 1 0 0 1-1.236-.877l-.361-3.826-2.473-2.29a1 1 0 0 1-.062-1.405l2.854-3.154-.254-2.073-2.254-3.233-3.173 1.479c-.635.296-2.006.296-4.53.09a1 1 0 0 1-.698-.37l-3.049-3.798a1 1 0 0 1-.22-.626v-3.626a1 1 0 0 1 .047-.302 52.993 52.993 0 0 1 .909-2.609c.616-1.611.945-2.284 1.538-2.56.122-.057 1.054-1.213 2.365-3.089a1 1 0 0 1 .686-.418l3.747-.503 4.496-.382a1 1 0 0 1 .427.057l2.904 1.056 1.671-.664zm9.777 22.363l-.07.102.033-.053.037-.05zm-2.9 3.824l-.24.221.102-.13.138-.091zM32.357 23.78a.11.11 0 0 0 .006-.007l-.006.007zM33 10.913a1 1 0 0 1-.208-.293l-.401-.86a1 1 0 0 1 .093-1.004l2.325-3.248 2.28-3.75a1 1 0 1 1 1.709 1.04l-2.32 3.811-2.028 2.835.077.165 1.806 1.76a1 1 0 0 1-.275 1.623l-1.155.538.136 1.936 2.322-.134 4.482-2.088 2.26-1.21a1 1 0 1 1 .945 1.762l-2.31 1.236-4.705 2.194a1 1 0 0 1-.366.092l-3.499.2a1 1 0 0 1-1.054-.927l-.255-3.606a1 1 0 0 1 .575-.977l.467-.217-.9-.878z"/>
        <path fill="#212121" d="M53.35 26.033a1 1 0 0 1-1.593 0c-5.807-7.649-8.716-13.089-8.716-16.52a9.513 9.513 0 0 1 19.026 0c0 3.431-2.91 8.871-8.717 16.52zm6.717-16.52a7.513 7.513 0 0 0-15.026 0c0 2.698 2.5 7.506 7.513 14.25 5.012-6.744 7.513-11.552 7.513-14.25z"/>
        <path fill="#212121" d="M52.554 13.104a3.59 3.59 0 1 1 0-7.182 3.59 3.59 0 0 1 0 7.182zm0-2a1.59 1.59 0 1 0 0-3.182 1.59 1.59 0 0 0 0 3.182z"/>
        <g fill="#212121">
            <path d="M17.29 48.135a1 1 0 0 1-1.594 0C9.89 40.486 6.98 35.046 6.98 31.615a9.513 9.513 0 0 1 19.026 0c0 3.431-2.91 8.871-8.717 16.52zm6.716-16.52a7.513 7.513 0 1 0-15.026 0c0 2.698 2.5 7.506 7.513 14.25 5.012-6.744 7.513-11.552 7.513-14.25z"/>
            <path d="M16.493 35.206a3.59 3.59 0 1 1 0-7.182 3.59 3.59 0 0 1 0 7.182zm0-2a1.59 1.59 0 1 0 0-3.182 1.59 1.59 0 0 0 0 3.182z"/>
        </g>
        <path fill="#212121" d="M5.077 36.456a1 1 0 0 1 0-2h3.757a1 1 0 1 1 0 2H5.077z"/>
    </g>
</svg>
