<svg xmlns="http://www.w3.org/2000/svg" width="68" height="68" viewBox="0 0 68 68">
    <g fill="none" fill-rule="evenodd">
        <g transform="rotate(4 -100.162 116.468)">
            <circle cx="32.417" cy="22.324" r="17.85" fill="#E8E8E8" fill-rule="nonzero"/>
            <path stroke="#212121" stroke-linejoin="round" stroke-width="2" d="M16.017 1.574l9.755 1.19a7.96 7.96 0 0 1 6.575 5.352l.997 2.945a8 8 0 0 1 .343 3.68l-4.15 29.466a4.007 4.007 0 0 1-4.52 3.406l-20.36-2.855a3.996 3.996 0 0 1-3.406-4.514c0-.001 0-.002.003-.002l4.144-29.415A8 8 0 0 1 6.8 7.304L8.53 4.876a8 8 0 0 1 7.488-3.302z"/>
            <path stroke="#212121" stroke-width="2" d="M11.772 18.83a3 3 0 0 0-3.367 2.537l-.487 3.31-.005.036a3 3 0 0 0 2.574 3.373l13.675 1.838a3 3 0 0 0 3.367-2.537l.487-3.31.005-.036a3 3 0 0 0-2.574-3.373L11.772 18.83zM9.793 31.86a3 3 0 0 0-3.368 2.536l-.486 3.31-.005.036a3 3 0 0 0 2.573 3.373l13.675 1.839a3 3 0 0 0 3.368-2.538l.486-3.31.005-.036a3 3 0 0 0-2.573-3.372L9.793 31.859z"/>
            <ellipse cx="20.262" cy="7.411" stroke="#212121" stroke-width="2" rx="2.173" ry="2.137" transform="rotate(8 20.262 7.411)"/>
        </g>
        <path fill="#E8E8E8" d="M41.882 27.2h14.035l-6.813-5.825-7.222-3.57-2.53-.604c-1.05.63-1.626 1.498-1.729 2.605-.103 1.106.226 2.894.987 5.364l3.272 2.03z"/>
        <path fill="#212121" fill-rule="nonzero" stroke="#212121" stroke-width=".15" d="M38.655 16.722l8.057-5.493a3.22 3.22 0 0 1 3.445-.135l3.899 2.244a3.703 3.703 0 0 1 1.81 2.725l1.39 10.644c.038.3-.092.599-.343.77l-.778.53 8.598 12.867c.113.168.16.38.122.576l-.439 2.546a.807.807 0 0 1-.932.656l-5.073-.962a.798.798 0 0 1-.638-.814l.072-2.562-2.299-.796a.793.793 0 0 1-.513-.92l.459-2.153-.766-1.148-1.282-.729a.775.775 0 0 1-.266-.246l-1.98-2.968-1.132.77a.781.781 0 0 1-.813.046l-9.51-5.074a3.702 3.702 0 0 1-1.914-2.776l-.588-4.42a3.298 3.298 0 0 1 1.414-3.178zm15.738 16.56l1.282.73a.775.775 0 0 1 .266.246l1.06 1.587a.785.785 0 0 1 .113.615l-.381 1.794 2.185.758c.324.112.536.43.533.778l-.07 2.464 3.622.696.246-1.43-8.422-12.621-2.308 1.574 1.874 2.81zm-15.58-13.605l.583 4.443a2.115 2.115 0 0 0 1.092 1.586l9.095 4.846 6.047-4.129-1.332-10.153a2.14 2.14 0 0 0-1.032-1.558l-3.9-2.244a1.657 1.657 0 0 0-1.774.069l-8.058 5.493a1.716 1.716 0 0 0-.722 1.647z"/>
        <path fill="#212121" fill-rule="nonzero" d="M43.299 19.223l3.554-2.397a2.303 2.303 0 0 1 3.204.622 2.303 2.303 0 0 1-.623 3.204l-3.554 2.397a2.303 2.303 0 0 1-3.204-.623 2.303 2.303 0 0 1 .623-3.203zm.62 2.365a.813.813 0 0 0 1.13.22l3.554-2.398a.807.807 0 0 0 .22-1.129.807.807 0 0 0-1.13-.22L44.14 20.46a.807.807 0 0 0-.22 1.129z"/>
        <path stroke="#212121" stroke-width="2" d="M28.236 14.107s5.576 10.315 15.903 6.352c1.46-.56 2.341-1.43 2.643-2.609"/>
    </g>
</svg>
