<svg xmlns="http://www.w3.org/2000/svg" viewBox="0 0 80 80">
    <g fill="none" fill-rule="nonzero" transform="translate(5 7)">
        <circle cx="21" cy="30" r="21" fill="#E8E8E8"/>
        <path fill="#212121" d="M45.047 33.084a1 1 0 0 1-.393-1.505 11.898 11.898 0 0 0 2.272-5.936l1.015-10.487A12 12 0 0 0 47.997 14c0-6.627-5.373-12-12-12h-1.924a12 12 0 0 0-1.156.056c-6.596.638-11.426 6.503-10.788 13.1l1.015 10.487c.21 2.165.993 4.194 2.256 5.914a1 1 0 0 1-.396 1.505c-9.43 4.234-15.771 14.076-15.998 25.236h7.806l-1.352-13.15a3 3 0 0 1 2.984-3.306h33.182a3 3 0 0 1 2.984 3.307l-1.352 13.15h7.736c-.226-11.14-6.543-20.967-15.947-25.215zM63 58.917c0 .131 0 .262-.002.393a1 1 0 0 1-1 .988H52.15a1 1 0 0 1-.995-1.102l1.466-14.252c.005-.654-.443-1.102-.995-1.102H18.444c-.651.062-1.051.553-.995 1.102l1.466 14.252a1 1 0 0 1-.995 1.102H8.002a1 1 0 0 1-1-.988L7 58.917c0-11.77 6.385-22.285 16.12-27.174a13.904 13.904 0 0 1-1.967-5.908L20.138 15.35C19.394 7.653 25.028.809 32.725.065A14 14 0 0 1 34.073 0h1.924c7.732 0 14 6.268 14 14a14 14 0 0 1-.065 1.349l-1.015 10.486c-.206 2.13-.89 4.15-1.983 5.935C56.64 36.671 63 47.17 63 58.917z"/>
        <path fill="#212121" d="M35.035 2c-.414 0-.828.02-1.24.06-7.077.685-12.258 6.977-11.573 14.053l.922 9.53a11.947 11.947 0 0 0 23.782 0l.923-9.53c.04-.412.06-.826.06-1.24C47.908 7.763 42.144 2 35.034 2zm0-2c8.214 0 14.873 6.659 14.873 14.873 0 .479-.023.957-.069 1.433l-.922 9.53a13.947 13.947 0 0 1-27.764 0l-.922-9.53C19.44 8.13 25.426.86 33.602.069 34.08.023 34.557 0 35.035 0z"/>
        <path fill="#212121" d="M47.069 24.506a1 1 0 1 1 2 0c0 2.963-1.53 4.886-4.294 5.877-2.016.723-4.387.943-8.32.964-.397.002-.713.003-1.42.003a1 1 0 1 1 0-2c.704 0 1.018 0 1.409-.003 7.651-.04 10.625-1.106 10.625-4.841z"/>
        <rect width="7.053" height="4.702" x="31.509" y="28.035" fill="#212121" rx="1.5"/>
        <path fill="#212121" d="M43.847 12.738c1.135-.52 2.089-1.083 2.755-1.6.278-.216.487-.41.614-.561.035-.042.029-.03.029.135a1 1 0 0 1 2 0c0 2.473-7.829 6.066-15.79 6.402a1 1 0 0 1-1.015-1.225c.151-.654.276-1.201.382-1.674-2.996 2.614-7.202 4.159-11.215 4.159a1 1 0 1 1 0-2c4.479 0 9.27-2.209 11.719-5.658.088-.126.18-.23.303-.322.306-.23.72-.327 1.145-.093.327.179.465.433.53.72.027.117.037.231.037.357.001.299-.055.726-.164 1.323a56.242 56.242 0 0 1-.49 2.332c3.459-.287 6.592-1.116 9.16-2.295zm-8.902-.85a.321.321 0 0 0 .007-.008l-.007.008zM49.14 17.28a1 1 0 1 1 0-2h1.878a4 4 0 0 1 4 4v3.404a4 4 0 0 1-4 4h-3.053a1 1 0 1 1 0-2h3.053a2 2 0 0 0 2-2v-3.403a2 2 0 0 0-2-2H49.14z"/>
        <path fill="#212121" d="M20.93 17.28a1 1 0 1 0 0-2h-1.877a4 4 0 0 0-4 4v3.404a4 4 0 0 0 4 4h3.052a1 1 0 1 0 0-2h-3.052a2 2 0 0 1-2-2v-3.403a2 2 0 0 1 2-2h1.877zM52.62 44.944a1 1 0 0 0-.994-1.102H18.444c-.651.062-1.051.553-.995 1.102L19.306 63h31.458l1.857-18.056zm-.994-3.102a3 3 0 0 1 2.984 3.307l-1.949 18.953a1 1 0 0 1-.994.898H18.404a1 1 0 0 1-.995-.898L15.46 45.15a3 3 0 0 1 2.984-3.307h33.182z"/>
        <path fill="#212121" d="M35.035 57.947a4.526 4.526 0 1 1 0-9.052 4.526 4.526 0 0 1 0 9.052zm0-2a2.526 2.526 0 1 0 0-5.052 2.526 2.526 0 0 0 0 5.052z"/>
    </g>
</svg>
